<?xml version="1.0" standalone="no"?>
<!DOCTYPE svg PUBLIC "-//W3C//DTD SVG 20010904//EN"
 "http://www.w3.org/TR/2001/REC-SVG-20010904/DTD/svg10.dtd">
<svg version="1.0" xmlns="http://www.w3.org/2000/svg"
 width="1041.000000pt" height="57.000000pt" viewBox="0 0 1041.000000 57.000000"
 preserveAspectRatio="xMidYMid meet">

<g transform="translate(0.000000,57.000000) scale(0.100000,-0.100000)"
fill="#000000" stroke="none">
<path d="M8565 468 c-28 -16 -35 -28 -35 -62 0 -16 -8 -34 -17 -41 -12 -9 -18
-29 -19 -66 -3 -86 2 -90 104 -87 l87 3 3 73 c2 58 0 73 -13 78 -9 4 -15 19
-15 39 0 24 -7 39 -26 54 -30 24 -41 25 -69 9z m65 -23 c6 -8 13 -28 14 -45 2
-30 2 -30 -51 -30 -48 0 -53 2 -53 23 0 53 60 88 90 52z m43 -94 c4 -1 7 -28
7 -61 l0 -60 -85 0 -85 0 0 59 0 60 43 3 c36 3 94 2 120 -1z"/>
<path d="M8574 315 c-3 -8 1 -23 8 -34 15 -21 15 -21 28 3 7 13 9 29 6 35 -10
16 -36 14 -42 -4z"/>
<path d="M3507 443 c-4 -3 -7 -16 -7 -27 0 -42 -27 -66 -75 -66 -24 0 -47 -5
-50 -11 -12 -18 -11 -110 0 -119 7 -5 61 -6 126 -2 l114 7 12 60 c13 67 8 78
-37 78 -25 0 -30 4 -30 24 0 46 -31 78 -53 56z m35 -58 c-1 -34 -1 -35 38 -35
37 0 39 -2 35 -27 -10 -79 -12 -81 -76 -85 -33 -1 -64 -1 -69 0 -16 6 -12 88
6 103 14 12 45 62 44 74 -1 27 0 29 12 17 6 -6 11 -27 10 -47z m-100 -67 c3
-7 4 -29 3 -48 -1 -32 -5 -35 -33 -38 l-32 -3 0 50 c0 50 1 51 29 51 16 0 31
-6 33 -12z"/>
<path d="M238 414 c-55 -29 -78 -127 -44 -179 40 -61 120 -81 176 -43 79 53
90 140 25 205 -28 28 -40 33 -81 33 -27 -1 -61 -7 -76 -16z m122 -9 c37 -19
60 -62 60 -111 0 -51 -53 -104 -104 -104 -107 0 -163 113 -94 188 41 43 88 53
138 27z"/>
<path d="M319 307 c-36 -42 -37 -42 -58 -23 -29 26 -27 5 2 -22 l24 -22 41 49
c23 27 42 52 42 55 0 15 -18 2 -51 -37z"/>
<path d="M5944 397 c-67 -61 -53 -167 27 -207 46 -24 68 -25 114 -6 92 39 100
184 13 232 -13 8 -44 13 -71 14 -40 0 -53 -5 -83 -33z m158 -4 c34 -30 50 -71
42 -106 -14 -66 -53 -97 -120 -97 -54 0 -104 53 -104 110 0 52 13 76 53 101
38 24 98 20 129 -8z"/>
<path d="M6070 361 c0 -6 -24 -11 -52 -13 -51 -3 -53 -4 -56 -33 -2 -16 0 -26
5 -22 4 5 8 12 8 15 0 4 4 13 8 20 11 16 87 16 87 0 0 -8 6 -7 16 4 9 9 13 21
10 27 -9 13 -26 14 -26 2z"/>
<path d="M6090 300 c-4 -22 -11 -25 -52 -28 -34 -2 -48 1 -48 10 0 8 -6 7 -17
-5 -23 -23 -5 -41 28 -28 14 5 36 7 50 5 35 -6 51 8 47 42 -4 28 -4 28 -8 4z"/>
<path d="M547 413 c-11 -10 -8 -73 3 -73 6 0 10 6 10 14 0 7 10 17 23 21 l22
8 -22 4 c-13 2 -23 8 -23 13 0 5 10 11 23 13 20 4 20 4 -4 6 -14 0 -29 -2 -32
-6z"/>
<path d="M621 378 c1 -24 3 -35 6 -25 2 9 11 17 18 17 8 0 19 -8 24 -17 8 -14
10 -9 11 25 0 40 -1 42 -30 42 -29 0 -30 -2 -29 -42z m49 22 c0 -5 -9 -10 -20
-10 -11 0 -20 5 -20 10 0 6 9 10 20 10 11 0 20 -4 20 -10z"/>
<path d="M700 380 c0 -39 1 -40 33 -39 23 1 26 3 10 6 -27 5 -31 30 -5 36 16
4 16 5 0 6 -26 2 -22 19 5 24 16 3 13 5 -10 6 -32 1 -33 0 -33 -39z"/>
<path d="M782 413 c11 -3 18 -17 21 -41 l4 -37 1 37 c1 25 7 38 20 41 9 3 -1
5 -23 5 -22 0 -32 -2 -23 -5z"/>
<path d="M850 380 c0 -39 1 -40 33 -39 23 1 26 3 10 6 -13 2 -23 11 -23 18 0
7 10 16 23 18 l22 4 -22 2 c-13 0 -23 5 -23 10 0 5 10 12 23 14 16 3 13 5 -10
6 -32 1 -33 0 -33 -39z"/>
<path d="M964 395 c-8 -33 11 -55 47 -55 22 0 29 5 29 20 0 11 -7 23 -15 27
-21 7 -33 -6 -16 -16 9 -6 10 -11 2 -15 -17 -11 -31 3 -31 31 0 22 4 25 25 21
13 -3 22 -1 19 3 -3 5 -16 9 -29 9 -18 0 -26 -7 -31 -25z"/>
<path d="M1050 380 c0 -22 5 -40 10 -40 6 0 10 7 10 16 0 10 7 14 18 12 9 -2
16 -10 15 -16 -2 -7 1 -12 6 -12 4 0 8 18 8 40 0 39 -1 40 -33 40 -33 0 -34
-1 -34 -40z m50 20 c0 -5 -7 -10 -15 -10 -8 0 -15 5 -15 10 0 6 7 10 15 10 8
0 15 -4 15 -10z"/>
<path d="M1147 380 c-8 -22 -11 -40 -6 -40 5 0 9 5 9 10 0 6 9 10 20 10 11 0
20 -4 20 -10 0 -5 4 -10 9 -10 13 0 -12 73 -26 77 -5 2 -17 -15 -26 -37z m29
-7 c-10 -10 -19 5 -10 18 6 11 8 11 12 0 2 -7 1 -15 -2 -18z"/>
<path d="M1218 413 c6 -2 12 -20 12 -39 0 -19 5 -34 10 -34 6 0 10 15 10 34 0
24 5 36 18 39 9 3 -1 5 -23 5 -22 0 -34 -2 -27 -5z"/>
<path d="M1293 380 c0 -25 2 -35 4 -22 2 12 2 32 0 45 -2 12 -4 2 -4 -23z"/>
<path d="M1320 405 c0 -9 11 -21 25 -27 14 -6 25 -15 25 -20 0 -12 -24 -10
-39 5 -11 10 -13 9 -9 -3 3 -8 17 -16 31 -18 22 -3 27 1 27 18 0 13 -8 24 -20
27 -11 3 -20 10 -20 15 0 6 9 8 20 5 11 -3 18 -1 14 4 -9 15 -54 10 -54 -6z"/>
<path d="M1430 380 c0 -22 5 -40 10 -40 6 0 10 6 10 14 0 7 9 16 20 19 12 3
20 14 20 26 0 17 -6 21 -30 21 -28 0 -30 -2 -30 -40z m48 18 c-6 -18 -28 -21
-28 -4 0 9 7 16 16 16 9 0 14 -5 12 -12z"/>
<path d="M1512 387 c-16 -45 -15 -49 8 -35 17 11 22 10 30 -2 17 -27 21 -2 6
34 -19 45 -29 45 -44 3z m25 -9 c-3 -8 -6 -5 -6 6 -1 11 2 17 5 13 3 -3 4 -12
1 -19z"/>
<path d="M1582 381 c0 -23 3 -41 9 -41 5 0 9 7 9 15 0 8 7 15 15 15 8 0 15 -7
15 -15 0 -8 4 -15 9 -15 6 0 9 17 8 38 -3 33 -6 37 -34 40 -30 3 -31 2 -31
-37z m48 20 c0 -5 -7 -11 -15 -15 -9 -3 -15 0 -15 9 0 8 7 15 15 15 8 0 15 -4
15 -9z"/>
<path d="M1682 387 c-16 -45 -15 -49 8 -35 17 11 22 10 30 -2 17 -27 21 -2 6
34 -19 45 -29 45 -44 3z m25 -9 c-3 -8 -6 -5 -6 6 -1 11 2 17 5 13 3 -3 4 -12
1 -19z"/>
<path d="M1790 402 c0 -11 12 -23 28 -29 24 -9 25 -11 8 -18 -12 -5 -21 -3
-27 6 -7 11 -9 10 -9 -4 0 -14 6 -18 28 -15 35 4 39 41 5 46 -13 2 -23 8 -23
14 0 6 10 8 26 4 17 -5 23 -3 19 4 -11 18 -55 12 -55 -8z"/>
<path d="M1873 385 c2 -36 5 -40 27 -40 22 0 25 4 27 40 l1 40 -6 -35 c-4 -22
-13 -35 -22 -35 -9 0 -18 13 -22 35 l-6 35 1 -40z"/>
<path d="M1950 380 c0 -39 1 -40 33 -39 23 1 26 3 10 6 -22 4 -28 18 -25 56 1
9 -3 17 -8 17 -6 0 -10 -18 -10 -40z"/>
<path d="M2050 380 c0 -39 1 -40 33 -39 23 1 26 3 10 6 -13 2 -23 11 -23 18 0
7 10 16 23 18 l22 4 -22 2 c-13 0 -23 5 -23 10 0 5 10 12 23 14 16 3 13 5 -10
6 -32 1 -33 0 -33 -39z"/>
<path d="M2164 408 c-7 -10 14 -32 40 -41 6 -2 7 -8 3 -13 -4 -4 -17 -2 -29 5
-17 10 -19 10 -16 -1 6 -18 49 -23 59 -7 9 15 -7 39 -27 39 -8 0 -14 5 -14 11
0 6 9 9 20 6 11 -3 20 -1 20 4 0 13 -48 11 -56 -3z"/>
<path d="M2240 393 c0 -39 13 -55 41 -51 20 2 25 10 27 41 2 21 -1 37 -7 37
-6 0 -11 -16 -11 -35 0 -24 -5 -35 -15 -35 -10 0 -15 11 -15 35 0 19 -4 35
-10 35 -5 0 -10 -12 -10 -27z"/>
<path d="M2320 380 c0 -41 1 -41 33 -38 29 3 32 6 32 38 0 32 -3 35 -32 38
-32 3 -33 3 -33 -38z m55 0 c0 -16 -6 -26 -17 -28 -14 -3 -18 3 -18 28 0 25 4
31 18 28 11 -2 17 -12 17 -28z"/>
<path d="M2410 380 c0 -39 1 -40 33 -39 23 1 26 3 10 6 -27 5 -31 33 -5 34 11
1 8 4 -8 9 -25 7 -24 9 20 23 8 3 0 6 -17 6 -32 1 -33 0 -33 -39z"/>
<path d="M2490 402 c0 -11 12 -23 28 -29 24 -9 25 -11 8 -18 -12 -5 -21 -3
-27 6 -7 11 -9 10 -9 -4 0 -14 6 -18 27 -15 37 4 43 35 9 44 -14 3 -26 11 -26
16 0 6 11 7 26 4 17 -5 23 -3 19 4 -11 18 -55 12 -55 -8z"/>
<path d="M2572 413 c11 -3 18 -17 21 -41 l4 -37 1 37 c1 25 7 38 20 41 9 3 -1
5 -23 5 -22 0 -32 -2 -23 -5z"/>
<path d="M2640 380 c0 -39 1 -40 33 -39 23 1 26 3 10 6 -13 2 -23 11 -23 19 0
8 10 14 23 15 13 0 16 2 7 6 -43 14 -44 16 -15 23 l30 8 -32 1 c-32 1 -33 0
-33 -39z"/>
<path d="M9430 346 c-10 -13 -10 -19 0 -32 12 -14 15 -14 29 0 14 15 14 17 0
32 -14 14 -17 14 -29 0z m23 -11 c4 -8 2 -17 -3 -20 -6 -4 -10 3 -10 14 0 25
6 27 13 6z"/>
<path d="M3805 340 c-5 -9 -1 -10 14 -5 12 4 21 2 21 -4 0 -6 -5 -11 -12 -11
-6 0 -4 -6 7 -13 13 -10 15 -16 6 -21 -6 -4 -19 -2 -28 6 -14 11 -15 11 -11
-2 2 -8 16 -15 29 -15 21 0 24 5 24 35 0 28 -4 36 -22 38 -11 2 -24 -2 -28 -8z"/>
<path d="M3910 310 c0 -40 15 -55 23 -22 4 16 5 16 6 0 2 -28 20 -21 28 10 l7
27 7 -30 c6 -27 7 -26 8 13 1 48 -13 55 -27 15 l-10 -28 -11 28 c-15 39 -31
33 -31 -13z"/>
<path d="M4010 310 c0 -39 1 -40 33 -39 23 1 26 3 10 6 -13 2 -23 11 -23 18 0
7 10 16 23 18 l22 4 -22 2 c-13 0 -23 5 -23 10 0 5 10 12 23 14 16 3 13 5 -10
6 -32 1 -33 0 -33 -39z"/>
<path d="M4094 338 c-7 -10 14 -32 40 -41 6 -2 7 -8 3 -13 -4 -4 -17 -2 -29 5
-17 10 -19 10 -16 -1 3 -7 17 -14 31 -16 22 -3 27 1 27 18 0 13 -8 24 -20 27
-11 3 -20 10 -20 15 0 5 10 6 21 3 15 -5 19 -4 15 4 -9 14 -43 14 -52 -1z"/>
<path d="M4170 310 c0 -39 1 -40 33 -39 23 1 26 3 10 6 -27 5 -31 30 -5 36 16
4 16 5 0 6 -26 2 -22 19 5 24 16 3 13 5 -10 6 -32 1 -33 0 -33 -39z"/>
<path d="M4250 331 c0 -12 9 -21 25 -25 15 -4 23 -11 19 -17 -3 -6 -15 -9 -25
-6 -11 3 -19 1 -19 -4 0 -5 14 -9 30 -9 39 0 43 36 5 46 -14 3 -25 11 -25 16
0 6 11 7 26 4 17 -5 23 -3 19 4 -3 5 -17 10 -31 10 -17 0 -24 -6 -24 -19z"/>
<path d="M4360 310 c0 -36 3 -40 25 -40 31 0 50 32 35 60 -6 12 -21 20 -35 20
-22 0 -25 -4 -25 -40z m45 0 c0 -16 -6 -26 -17 -28 -14 -3 -18 3 -18 28 0 25
4 31 18 28 11 -2 17 -12 17 -28z"/>
<path d="M4440 310 c0 -39 1 -40 33 -39 23 1 26 3 10 6 -13 2 -23 11 -23 18 0
7 10 16 23 18 l22 4 -22 2 c-13 0 -23 5 -23 10 0 5 10 12 23 14 16 3 13 5 -10
6 -32 1 -33 0 -33 -39z"/>
<path d="M4554 325 c-8 -33 11 -55 47 -55 22 0 29 5 29 20 0 11 -7 23 -15 27
-21 7 -33 -6 -16 -16 9 -6 10 -11 2 -15 -17 -11 -31 3 -31 31 0 22 4 25 25 21
13 -3 22 -1 19 3 -3 5 -16 9 -29 9 -18 0 -26 -7 -31 -25z"/>
<path d="M4659 323 c-5 -16 -12 -34 -14 -40 -2 -7 0 -13 5 -13 6 0 10 5 10 10
0 6 9 10 20 10 11 0 20 -4 20 -10 0 -5 4 -10 9 -10 5 0 2 18 -6 40 -19 47 -30
50 -44 13z m31 -14 c0 -5 -4 -9 -10 -9 -5 0 -10 7 -10 16 0 8 5 12 10 9 6 -3
10 -10 10 -16z"/>
<path d="M4730 310 c0 -22 5 -40 10 -40 6 0 9 5 8 12 -5 20 30 21 35 1 3 -10
5 1 6 25 1 40 0 42 -29 42 -28 0 -30 -2 -30 -40z m50 20 c0 -5 -7 -10 -15 -10
-8 0 -15 5 -15 10 0 6 7 10 15 10 8 0 15 -4 15 -10z"/>
<path d="M4824 315 c-18 -45 -18 -48 5 -33 15 9 23 9 35 -1 19 -16 20 -8 4 36
-15 42 -25 42 -44 -2z m23 -7 c-3 -8 -6 -5 -6 6 -1 11 2 17 5 13 3 -3 4 -12 1
-19z"/>
<path d="M4900 310 c0 -41 20 -58 21 -17 l0 22 16 -22 c23 -34 33 -28 33 17 0
41 -20 58 -21 18 l0 -23 -16 23 c-23 33 -33 27 -33 -18z"/>
<path d="M4992 343 c11 -3 18 -17 21 -41 l4 -37 1 37 c1 25 7 38 20 41 9 3 -1
5 -23 5 -22 0 -32 -2 -23 -5z"/>
<path d="M5060 310 c0 -22 5 -40 10 -40 6 0 10 18 10 40 0 22 -4 40 -10 40 -5
0 -10 -18 -10 -40z"/>
<path d="M5109 323 c-5 -16 -12 -34 -14 -40 -2 -7 0 -13 5 -13 6 0 10 5 10 10
0 6 9 10 20 10 11 0 20 -4 20 -10 0 -5 4 -10 9 -10 5 0 2 18 -6 40 -19 47 -30
50 -44 13z m31 -14 c0 -5 -4 -9 -10 -9 -5 0 -10 7 -10 16 0 8 5 12 10 9 6 -3
10 -10 10 -16z"/>
<path d="M6322 343 c11 -3 18 -17 21 -41 l4 -37 1 37 c1 25 7 38 20 41 9 3 -1
5 -23 5 -22 0 -32 -2 -23 -5z"/>
<path d="M6392 311 c-1 -23 3 -41 8 -41 6 0 10 7 10 15 0 8 7 15 15 15 8 0 15
-7 15 -15 0 -8 4 -15 9 -15 6 0 9 17 8 38 -3 33 -6 37 -33 40 -29 3 -31 1 -32
-37z m48 19 c0 -5 -7 -10 -15 -10 -8 0 -15 5 -15 10 0 6 7 10 15 10 8 0 15 -4
15 -10z"/>
<path d="M6484 336 c-3 -8 -4 -25 -2 -38 2 -18 9 -23 33 -23 28 0 30 3 30 35
0 31 -3 35 -28 38 -17 2 -29 -2 -33 -12z m51 -26 c0 -29 -32 -41 -41 -16 -9
24 4 48 23 44 12 -2 18 -12 18 -28z"/>
<path d="M6574 336 c-3 -8 -4 -25 -2 -38 2 -18 9 -23 32 -23 16 0 31 6 34 13
3 11 1 11 -17 0 -18 -11 -23 -11 -31 2 -23 35 5 65 37 39 14 -12 16 -12 11 1
-6 21 -56 26 -64 6z"/>
<path d="M6665 313 c-8 -20 -12 -39 -9 -42 4 -3 9 0 11 7 5 14 43 16 43 2 0
-5 4 -10 9 -10 5 0 2 18 -6 40 -9 22 -20 40 -24 40 -5 0 -16 -16 -24 -37z m35
-4 c0 -5 -4 -9 -10 -9 -5 0 -10 7 -10 16 0 8 5 12 10 9 6 -3 10 -10 10 -16z"/>
<path d="M6770 310 c0 -39 1 -40 33 -39 23 1 26 3 10 6 -13 2 -23 11 -23 18 0
7 10 16 23 18 l22 4 -22 2 c-13 0 -23 5 -23 10 0 5 10 12 23 14 16 3 13 5 -10
6 -32 1 -33 0 -33 -39z"/>
<path d="M6850 310 c0 -40 15 -55 23 -22 4 16 5 16 6 0 2 -28 20 -21 28 10 l7
27 7 -30 c6 -27 7 -26 8 13 1 48 -13 55 -27 15 l-10 -28 -11 28 c-15 39 -31
33 -31 -13z"/>
<path d="M6994 315 c-18 -45 -18 -48 5 -33 15 9 23 9 35 -1 19 -16 20 -8 4 36
-15 42 -25 42 -44 -2z m23 -7 c-3 -8 -6 -5 -6 6 -1 11 2 17 5 13 3 -3 4 -12 1
-19z"/>
<path d="M7062 343 c11 -3 18 -17 21 -41 l4 -37 1 37 c1 25 7 38 20 41 9 3 -1
5 -23 5 -22 0 -32 -2 -23 -5z"/>
<path d="M7130 310 c0 -39 1 -40 33 -39 23 1 26 3 10 6 -13 2 -23 11 -23 18 0
7 10 16 23 18 l22 4 -22 2 c-13 0 -23 5 -23 10 0 5 10 12 23 14 16 3 13 5 -10
6 -32 1 -33 0 -33 -39z"/>
<path d="M7257 342 c17 -5 20 -11 13 -22 -5 -8 -10 -24 -10 -35 0 -12 7 -6 20
20 11 22 20 41 20 42 0 2 -15 3 -32 2 -27 -1 -29 -2 -11 -7z"/>
<path d="M7350 310 c0 -41 1 -41 33 -38 29 3 32 6 32 38 0 32 -3 35 -32 38
-32 3 -33 3 -33 -38z m54 15 c8 -21 -3 -45 -20 -45 -9 0 -14 11 -14 30 0 32
23 42 34 15z"/>
<path d="M7443 310 c0 -25 2 -35 4 -22 2 12 2 32 0 45 -2 12 -4 2 -4 -23z"/>
<path d="M7482 317 c-16 -45 -15 -49 8 -35 17 11 22 10 30 -2 17 -27 21 -2 6
34 -19 45 -29 45 -44 3z m25 -9 c-3 -8 -6 -5 -6 6 -1 11 2 17 5 13 3 -3 4 -12
1 -19z"/>
<path d="M7560 332 c0 -11 12 -23 28 -29 24 -9 25 -11 8 -18 -12 -5 -21 -3
-27 6 -7 11 -9 11 -9 -3 0 -13 8 -18 31 -18 26 0 30 3 27 23 -2 14 -11 23 -25
25 -13 2 -23 8 -23 14 0 6 10 8 26 4 17 -5 23 -3 19 4 -11 18 -55 12 -55 -8z"/>
<path d="M8872 313 c3 -34 6 -38 33 -40 20 -1 23 0 8 4 -19 3 -23 11 -23 39 0
19 -5 34 -11 34 -6 0 -9 -16 -7 -37z"/>
<path d="M8942 333 c-6 -11 -6 -27 -1 -41 7 -18 15 -23 36 -20 25 3 28 7 28
38 0 31 -3 35 -27 38 -18 2 -30 -3 -36 -15z m53 -23 c0 -29 -32 -41 -41 -16
-9 24 4 48 23 44 12 -2 18 -12 18 -28z"/>
<path d="M9060 315 c0 -19 -4 -35 -10 -35 -5 0 -10 5 -10 10 0 6 -4 10 -10 10
-5 0 -7 -7 -3 -16 3 -8 15 -14 27 -12 17 2 21 10 23 41 0 20 -3 37 -8 37 -5 0
-9 -16 -9 -35z"/>
<path d="M9109 323 c-5 -16 -12 -34 -14 -40 -2 -7 0 -13 5 -13 6 0 10 5 10 10
0 6 9 10 20 10 11 0 20 -4 20 -10 0 -5 4 -10 9 -10 5 0 2 18 -6 40 -19 47 -30
50 -44 13z m31 -14 c0 -5 -4 -9 -10 -9 -5 0 -10 7 -10 16 0 8 5 12 10 9 6 -3
10 -10 10 -16z"/>
<path d="M9220 340 c-10 -6 -11 -10 -2 -10 7 0 12 -13 12 -30 0 -16 5 -30 10
-30 6 0 10 17 8 40 -2 43 -5 45 -28 30z"/>
<path d="M9274 336 c-11 -29 1 -61 24 -64 26 -4 37 17 28 53 -7 28 -43 35 -52
11z m36 -26 c0 -16 -5 -30 -10 -30 -14 0 -24 26 -16 45 10 26 26 16 26 -15z"/>
<path d="M9348 338 c-4 -37 -3 -44 5 -55 23 -31 65 7 52 47 -7 22 -54 28 -57
8z m40 -23 c-4 -33 -22 -33 -26 0 -2 18 1 25 13 25 12 0 15 -7 13 -25z"/>
<path d="M9480 318 c-20 -33 -28 -66 -9 -38 19 29 39 70 34 70 -3 0 -14 -15
-25 -32z"/>
<path d="M9600 331 c0 -11 9 -23 20 -26 11 -3 20 -11 20 -17 0 -6 -9 -8 -20
-5 -11 3 -20 1 -20 -5 0 -5 12 -8 27 -6 37 4 43 35 9 44 -14 3 -26 11 -26 16
0 6 11 7 26 4 17 -5 23 -3 19 4 -3 5 -17 10 -31 10 -17 0 -24 -6 -24 -19z"/>
<path d="M9674 336 c-3 -8 -4 -25 -2 -38 2 -18 10 -23 33 -25 20 -1 23 0 8 4
-13 2 -23 11 -23 18 0 7 10 16 23 18 l22 4 -22 2 c-32 2 -29 19 5 24 25 4 24
4 -6 6 -20 0 -35 -4 -38 -13z"/>
<path d="M9754 325 c-8 -33 11 -55 47 -55 22 0 29 5 29 20 0 11 -7 23 -15 27
-21 7 -33 -6 -16 -16 9 -6 10 -11 2 -15 -17 -11 -31 3 -31 31 0 22 4 25 25 21
13 -3 22 -1 19 3 -3 5 -16 9 -29 9 -18 0 -26 -7 -31 -25z"/>
<path d="M9840 333 c0 -46 12 -64 39 -61 22 3 26 8 29 41 2 21 -1 37 -7 37 -6
0 -11 -16 -11 -35 0 -24 -5 -35 -15 -35 -10 0 -15 11 -15 35 0 19 -4 35 -10
35 -5 0 -10 -8 -10 -17z"/>
<path d="M9931 308 c1 -24 3 -35 6 -25 2 9 13 17 23 17 10 0 21 -8 23 -17 3
-10 5 1 6 25 1 40 0 42 -29 42 -29 0 -30 -2 -29 -42z m49 22 c0 -5 -9 -10 -20
-10 -11 0 -20 5 -20 10 0 6 9 10 20 10 11 0 20 -4 20 -10z"/>
<path d="M10024 315 c-18 -45 -18 -48 5 -33 15 9 23 9 35 -1 19 -16 20 -8 4
36 -15 42 -25 42 -44 -2z m23 -7 c-3 -8 -6 -5 -6 6 -1 11 2 17 5 13 3 -3 4
-12 1 -19z"/>
<path d="M9504 305 c-7 -18 3 -35 22 -35 8 0 14 10 14 25 0 27 -27 35 -36 10z
m26 -10 c0 -8 -4 -15 -10 -15 -5 0 -10 7 -10 15 0 8 5 15 10 15 6 0 10 -7 10
-15z"/>
<path d="M2105 278 c-20 -19 -20 -20 -1 -34 11 -8 24 -14 30 -14 6 0 5 -5 -2
-12 -8 -8 -15 -8 -27 2 -8 7 -15 8 -15 3 0 -5 8 -16 18 -24 17 -15 20 -15 30
2 17 26 15 37 -8 44 -11 3 -20 11 -20 16 0 6 9 7 22 3 21 -6 22 -5 8 12 -8 10
-14 20 -15 20 0 1 -9 -7 -20 -18z"/>
<path d="M548 273 c-2 -5 -5 -23 -7 -40 -2 -31 -1 -33 31 -32 23 1 26 3 11 6
-13 2 -23 11 -23 18 0 7 10 16 23 18 l22 4 -22 2 c-32 2 -29 19 5 24 26 4 25
4 -5 6 -17 0 -33 -2 -35 -6z"/>
<path d="M620 240 c0 -43 16 -55 23 -17 l4 22 2 -22 c0 -13 6 -23 11 -23 6 0
15 10 20 23 l9 22 0 -22 c1 -41 21 -24 21 17 0 50 -25 55 -36 8 l-7 -33 -10
33 c-14 46 -37 42 -37 -8z"/>
<path d="M762 263 c-15 -28 3 -63 32 -63 13 0 27 7 30 16 5 14 4 15 -9 4 -21
-18 -47 -5 -43 22 2 18 9 23 31 21 15 -1 25 2 22 8 -10 16 -54 10 -63 -8z"/>
<path d="M844 256 c-12 -49 43 -76 70 -33 15 24 -3 51 -37 55 -21 3 -28 -2
-33 -22z m54 -13 c-2 -17 -9 -28 -18 -28 -9 0 -16 11 -18 28 -3 22 1 27 18 27
17 0 21 -5 18 -27z"/>
<path d="M939 278 c-6 -14 -4 -70 2 -74 5 -3 9 7 10 23 1 27 1 27 8 4 9 -32
31 -40 31 -11 0 12 -4 19 -9 16 -5 -3 -12 5 -15 19 -5 20 -22 34 -27 23z"/>
<path d="M994 249 c3 -17 6 -35 6 -40 0 -5 5 -9 10 -9 6 0 10 18 10 40 0 30
-4 40 -16 40 -13 0 -15 -7 -10 -31z"/>
<path d="M1030 241 c0 -23 5 -41 10 -41 6 0 10 6 10 14 0 8 10 16 23 18 14 2
22 10 22 23 0 15 -8 21 -32 23 -32 3 -33 2 -33 -37z m50 14 c0 -8 -7 -15 -15
-15 -8 0 -15 7 -15 15 0 8 7 15 15 15 8 0 15 -7 15 -15z"/>
<path d="M1110 240 c0 -22 5 -40 10 -40 6 0 10 7 10 15 0 8 7 15 15 15 8 0 15
-7 15 -15 0 -8 3 -15 8 -15 4 0 6 18 4 40 -4 37 -7 40 -33 40 -27 0 -29 -3
-29 -40z m50 20 c0 -5 -7 -10 -15 -10 -8 0 -15 5 -15 10 0 6 7 10 15 10 8 0
15 -4 15 -10z"/>
<path d="M1209 253 c-5 -16 -12 -34 -14 -40 -2 -7 0 -13 5 -13 6 0 10 5 10 10
0 6 9 10 20 10 11 0 20 -4 20 -10 0 -5 4 -10 9 -10 5 0 2 18 -6 40 -19 47 -30
50 -44 13z m31 -14 c0 -5 -4 -9 -10 -9 -5 0 -10 7 -10 16 0 8 5 12 10 9 6 -3
10 -10 10 -16z"/>
<path d="M1285 270 c-8 -13 13 -40 31 -40 8 0 14 -4 14 -10 0 -14 -23 -12 -39
3 -11 10 -13 9 -9 -3 3 -8 17 -16 31 -18 22 -3 27 1 27 18 0 13 -8 24 -20 27
-11 3 -20 10 -20 15 0 6 9 8 20 5 11 -3 18 -1 14 4 -7 12 -41 11 -49 -1z"/>
<path d="M1404 245 c-18 -45 -18 -48 5 -33 15 9 23 9 35 -1 19 -16 20 -8 4 36
-15 42 -25 42 -44 -2z m23 -7 c-3 -8 -6 -5 -6 6 -1 11 2 17 5 13 3 -3 4 -12 1
-19z"/>
<path d="M1480 260 c-15 -28 4 -62 32 -58 12 2 24 10 26 18 5 13 3 13 -11 2
-20 -17 -37 -8 -37 19 0 24 29 37 41 18 7 -11 9 -11 9 4 0 25 -46 23 -60 -3z"/>
<path d="M1560 240 c0 -22 5 -40 10 -40 6 0 9 18 8 40 -4 52 -18 52 -18 0z"/>
<path d="M1590 240 c0 -41 20 -58 21 -17 l0 22 9 -22 c5 -13 12 -23 15 -23 3
0 10 10 15 23 l9 22 0 -22 c1 -13 6 -23 11 -23 6 0 10 17 8 40 -2 49 -23 53
-34 8 l-7 -33 -10 33 c-14 46 -37 42 -37 -8z"/>
<path d="M1709 253 c-5 -16 -12 -34 -14 -40 -2 -7 0 -13 5 -13 6 0 10 5 10 10
0 14 38 12 43 -2 2 -7 7 -11 10 -8 7 7 -23 80 -34 80 -5 0 -14 -12 -20 -27z
m31 -14 c0 -5 -4 -9 -10 -9 -5 0 -10 7 -10 16 0 8 5 12 10 9 6 -3 10 -10 10
-16z"/>
<path d="M1810 241 c0 -36 3 -41 23 -41 35 0 49 15 45 46 -2 25 -8 29 -35 32
-32 3 -33 2 -33 -37z m54 14 c8 -21 -3 -45 -20 -45 -9 0 -14 11 -14 30 0 32
23 42 34 15z"/>
<path d="M1892 243 c3 -36 5 -38 38 -39 26 -1 28 -1 8 3 -34 5 -37 30 -5 36
l22 4 -22 2 c-32 2 -29 19 5 24 21 3 19 4 -11 6 l-38 1 3 -37z"/>
<path d="M2000 241 c0 -23 5 -41 10 -41 6 0 10 7 10 15 0 8 7 15 15 15 8 0 15
-7 15 -15 0 -8 4 -15 9 -15 6 0 9 17 8 38 -3 34 -6 37 -35 40 -31 3 -32 2 -32
-37z m55 19 c3 -5 -3 -10 -14 -10 -12 0 -21 5 -21 10 0 6 6 10 14 10 8 0 18
-4 21 -10z"/>
<path d="M2175 270 c-5 -9 -1 -10 14 -5 12 4 21 2 21 -4 0 -6 -5 -11 -12 -11
-6 0 -4 -6 7 -13 13 -10 15 -16 6 -21 -6 -4 -19 -2 -28 6 -14 11 -15 11 -11
-2 2 -8 16 -15 29 -15 21 0 24 5 24 35 0 28 -4 36 -22 38 -11 2 -24 -2 -28 -8z"/>
<path d="M2249 273 c0 -5 -2 -17 -4 -28 -8 -41 36 -61 55 -25 16 30 3 60 -26
60 -13 0 -24 -3 -25 -7z m39 -28 c-4 -33 -22 -33 -26 0 -2 18 1 25 13 25 12 0
15 -7 13 -25z"/>
</g>
</svg>
